<svg xmlns="http://www.w3.org/2000/svg" viewBox="0 0 980 540" font-family="ui-monospace, SFMono-Regular, Menlo, monospace">
  <defs>
    <style>
      .paper { fill:#0f1218; }
      .t     { fill:#ffffff; font-size:16px; font-weight:700; }
      .lbl   { fill:#cfd2cc; font-size:12.5px; }
      .sub   { fill:#8e96a2; font-size:11px; }
      .num   { fill:#67e8f9; font-size:13px; font-weight:700; }
      .cmd   { fill:#2EAADC; }
      .lat   { fill:#3a4250; }
      .dat   { fill:#22d3ee; }
      .gap   { fill:#262c36; stroke:#464d59; stroke-width:1; }
      .sep   { stroke:#0f1218; stroke-width:1; }
      .frame { fill:none; stroke:#464d59; stroke-width:1; }
    </style>
  </defs>

  <rect class="paper" x="0" y="0" width="980" height="540"/>
  <text class="t" x="490" y="34" text-anchor="middle" fill="#2EAADC">Where the HyperRAM cycles went, before and after</text>

  <!-- BEFORE -->
  <text class="lbl" x="60" y="88">Before: 4:1 clocking, 9-cycle CS gap, one command per access</text>

  <g>
    <!-- access 1 -->
    <rect class="cmd" x="60"  y="104" width="46" height="34"/>
    <rect class="lat" x="106" y="104" width="40" height="34"/>
    <rect class="dat" x="146" y="104" width="20" height="34"/>
    <rect class="gap" x="166" y="104" width="84" height="34"/>
    <!-- access 2 -->
    <rect class="cmd" x="250" y="104" width="46" height="34"/>
    <rect class="lat" x="296" y="104" width="40" height="34"/>
    <rect class="dat" x="336" y="104" width="20" height="34"/>
    <rect class="gap" x="356" y="104" width="84" height="34"/>
    <!-- access 3 -->
    <rect class="cmd" x="440" y="104" width="46" height="34"/>
    <rect class="lat" x="486" y="104" width="40" height="34"/>
    <rect class="dat" x="526" y="104" width="20" height="34"/>
    <rect class="gap" x="546" y="104" width="84" height="34"/>
    <!-- access 4 -->
    <rect class="cmd" x="630" y="104" width="46" height="34"/>
    <rect class="lat" x="676" y="104" width="40" height="34"/>
    <rect class="dat" x="716" y="104" width="20" height="34"/>
    <rect class="gap" x="736" y="104" width="84" height="34"/>
    <rect class="frame" x="60" y="104" width="760" height="34"/>
  </g>
  <text class="lbl" x="850" y="126">...</text>
  <text class="sub" x="60" y="162">one 32-bit word of data per command, then a long CS-high pause</text>
  <text class="num" x="60" y="192">BIOS memspeed: 5.2 / 14.6 MiB/s write / read (50 MHz bring-up sys)</text>

  <!-- AFTER -->
  <text class="lbl" x="60" y="268">After: 2:1 clocking, 2-cycle gap, adjacent accesses continue the open command</text>

  <g>
    <!-- command 1 -->
    <rect class="cmd" x="60"  y="284" width="46" height="34"/>
    <rect class="lat" x="106" y="284" width="40" height="34"/>
    <rect class="dat" x="146" y="284" width="320" height="34"/>
    <line class="sep" x1="166" y1="284" x2="166" y2="318"/>
    <line class="sep" x1="186" y1="284" x2="186" y2="318"/>
    <line class="sep" x1="206" y1="284" x2="206" y2="318"/>
    <line class="sep" x1="226" y1="284" x2="226" y2="318"/>
    <line class="sep" x1="246" y1="284" x2="246" y2="318"/>
    <line class="sep" x1="266" y1="284" x2="266" y2="318"/>
    <line class="sep" x1="286" y1="284" x2="286" y2="318"/>
    <line class="sep" x1="306" y1="284" x2="306" y2="318"/>
    <line class="sep" x1="326" y1="284" x2="326" y2="318"/>
    <line class="sep" x1="346" y1="284" x2="346" y2="318"/>
    <line class="sep" x1="366" y1="284" x2="366" y2="318"/>
    <line class="sep" x1="386" y1="284" x2="386" y2="318"/>
    <line class="sep" x1="406" y1="284" x2="406" y2="318"/>
    <line class="sep" x1="426" y1="284" x2="426" y2="318"/>
    <line class="sep" x1="446" y1="284" x2="446" y2="318"/>
    <rect class="gap" x="466" y="284" width="18" height="34"/>
    <!-- command 2 -->
    <rect class="cmd" x="484" y="284" width="46" height="34"/>
    <rect class="lat" x="530" y="284" width="40" height="34"/>
    <rect class="dat" x="570" y="284" width="250" height="34"/>
    <line class="sep" x1="590" y1="284" x2="590" y2="318"/>
    <line class="sep" x1="610" y1="284" x2="610" y2="318"/>
    <line class="sep" x1="630" y1="284" x2="630" y2="318"/>
    <line class="sep" x1="650" y1="284" x2="650" y2="318"/>
    <line class="sep" x1="670" y1="284" x2="670" y2="318"/>
    <line class="sep" x1="690" y1="284" x2="690" y2="318"/>
    <line class="sep" x1="710" y1="284" x2="710" y2="318"/>
    <line class="sep" x1="730" y1="284" x2="730" y2="318"/>
    <line class="sep" x1="750" y1="284" x2="750" y2="318"/>
    <line class="sep" x1="770" y1="284" x2="770" y2="318"/>
    <line class="sep" x1="790" y1="284" x2="790" y2="318"/>
    <line class="sep" x1="810" y1="284" x2="810" y2="318"/>
    <rect class="frame" x="60" y="284" width="760" height="34"/>
  </g>
  <text class="lbl" x="850" y="306">...</text>
  <text class="sub" x="60" y="342">contiguous words ride the same command; the pause between commands is 2 cycles</text>
  <text class="num" x="60" y="372">BIOS memspeed: 46.7 / 22.7 MiB/s write / read (50 MHz bring-up sys)</text>

  <!-- Legend -->
  <g>
    <rect class="cmd" x="150" y="438" width="18" height="14"/>
    <text class="sub" x="176" y="450">command + address</text>
    <rect class="lat" x="340" y="438" width="18" height="14"/>
    <text class="sub" x="366" y="450">latency</text>
    <rect class="dat" x="460" y="438" width="18" height="14"/>
    <text class="sub" x="486" y="450">data</text>
    <rect class="gap" x="550" y="438" width="18" height="14"/>
    <text class="sub" x="576" y="450">CS-high gap</text>
  </g>

  <text class="sub" x="490" y="500" text-anchor="middle" font-style="italic">Illustrative proportions, not cycle-exact. Numbers from the 50 MHz bring-up build; final target: 75 MHz sys.</text>
</svg>
